Land_normalized_precision_landing05_filtered_grf
version=1
nRows=15
nColumns=37
inDegrees=yes
endheader
time		1_ground_force_vx		1_ground_force_vy		1_ground_force_vz		1_ground_force_px		1_ground_force_py		1_ground_force_pz		1_ground_torque_x		1_ground_torque_y		1_ground_torque_z		2_ground_force_vx		2_ground_force_vy		2_ground_force_vz		2_ground_force_px		2_ground_force_py		2_ground_force_pz		2_ground_torque_x		2_ground_torque_y		2_ground_torque_z		3_ground_force_vx		3_ground_force_vy		3_ground_force_vz		3_ground_force_px		3_ground_force_py		3_ground_force_pz		3_ground_torque_x		3_ground_torque_y		3_ground_torque_z		4_ground_force_vx		4_ground_force_vy		4_ground_force_vz		4_ground_force_px		4_ground_force_py		4_ground_force_pz		4_ground_torque_x		4_ground_torque_y		4_ground_torque_z		
1.379500		-8.213594		815.634057		176.746220		0.076124		0.000000		0.196015		-0.187123		18.581815		4.026641		26.040574		793.523423		167.505598		-0.122089		0.000000		0.191218		1.165725		35.522638		7.498507		10.605789		-1.449667		-4.692349		0.381269		1.275815		1.884782		-0.011869		0.001622		0.005251		-6.248753		-0.139374		-0.701062		-0.351590		1.268463		1.872678		0.023058		0.000514		0.002587		
1.382152		-8.461079		816.479203		174.264652		0.076335		0.000000		0.196098		-0.193010		18.625163		3.975248		26.352188		797.684580		167.209121		-0.122042		0.000000		0.191015		1.174091		35.539883		7.449806		10.568605		-1.509159		-4.667137		0.381251		1.275813		1.884802		-0.012023		0.001717		0.005310		-6.286549		-0.135443		-0.695809		-0.351600		1.268466		1.872720		0.024245		0.000523		0.002684		
1.384803		-9.139127		817.091021		171.566078		0.076652		0.000000		0.196277		-0.208343		18.627118		3.911171		26.135242		801.535457		166.497638		-0.121886		0.000000		0.190816		1.154078		35.394064		7.352181		10.596611		-1.576093		-4.633608		0.381230		1.275807		1.884824		-0.012964		0.001928		0.005669		-6.331673		-0.161665		-0.670623		-0.351606		1.268465		1.872758		0.025099		0.000641		0.002658		
1.387455		-10.178299		817.181731		168.774171		0.077020		0.000000		0.196439		-0.231128		18.556556		3.832524		25.523041		805.011216		165.340114		-0.121634		0.000000		0.190630		1.112943		35.102802		7.209718		10.679517		-1.630609		-4.603715		0.381206		1.275800		1.884850		-0.014524		0.002218		0.006261		-6.381597		-0.211430		-0.639447		-0.351607		1.268459		1.872790		0.025556		0.000847		0.002561		
1.390106		-11.483323		816.457903		166.016228		0.077392		0.000000		0.196508		-0.259099		18.421859		3.745851		24.815107		808.024262		163.843631		-0.121335		0.000000		0.190465		1.066793		34.736606		7.043573		10.791988		-1.663042		-4.587414		0.381185		1.275792		1.884878		-0.016432		0.002532		0.006985		-6.433898		-0.271302		-0.615005		-0.351605		1.268448		1.872820		0.025633		0.001081		0.002450		
1.392758		-12.956630		814.680422		163.388682		0.077746		0.000000		0.196466		-0.290207		18.247651		3.659671		24.319926		810.465073		162.244923		-0.121052		0.000000		0.190312		1.031958		34.390109		6.884476		10.903017		-1.676166		-4.590041		0.381168		1.275782		1.884912		-0.018351		0.002821		0.007726		-6.485120		-0.326434		-0.604639		-0.351600		1.268433		1.872846		0.025434		0.001280		0.002371		
1.395409		-14.524374		811.679914		160.948117		0.078084		0.000000		0.196336		-0.322804		18.039632		3.577082		24.209151		812.211375		160.800112		-0.120838		0.000000		0.190152		1.017514		34.137367		6.758455		10.987945		-1.679649		-4.612051		0.381156		1.275775		1.884949		-0.019910		0.003044		0.008357		-6.530067		-0.366692		-0.609287		-0.351596		1.268418		1.872869		0.025103		0.001410		0.002342		
1.398061		-16.123644		807.355429		158.729508		0.078415		0.000000		0.196164		-0.355227		17.787276		3.497054		24.471799		813.140466		159.656799		-0.120711		0.000000		0.189970		1.023285		34.001382		6.676032		11.034351		-1.681908		-4.650138		0.381149		1.275771		1.884989		-0.020753		0.003163		0.008746		-6.562766		-0.388994		-0.625326		-0.351593		1.268404		1.872888		0.024783		0.001469		0.002361		
1.400712		-17.675125		801.697237		156.757849		0.078741		0.000000		0.195983		-0.385669		17.493079		3.420466		24.952342		813.149428		158.760982		-0.120656		0.000000		0.189764		1.041620		33.944406		6.627377		11.042959		-1.684674		-4.698638		0.381146		1.275769		1.885029		-0.020624		0.003146		0.008775		-6.578556		-0.396124		-0.647110		-0.351592		1.268394		1.872903		0.024586		0.001481		0.002419		
1.403364		-19.079419		794.815711		155.028889		0.079045		0.000000		0.195797		-0.412592		17.187955		3.352512		25.456433		812.168973		157.865357		-0.120630		0.000000		0.189553		1.062187		33.888299		6.587039		11.024710		-1.683171		-4.751771		0.381146		1.275770		1.885070		-0.019453		0.002970		0.008385		-6.575322		-0.392837		-0.669453		-0.351594		1.268388		1.872911		0.024578		0.001468		0.002502		
1.406015		-20.243560		786.939846		153.490918		0.079294		0.000000		0.195582		-0.434880		16.905336		3.297350		25.854732		810.149031		156.645748		-0.120592		0.000000		0.189362		1.077192		33.753428		6.526368		10.996556		-1.670893		-4.805737		0.381148		1.275774		1.885108		-0.017381		0.002641		0.007596		-6.553596		-0.382882		-0.688320		-0.351599		1.268386		1.872913		0.024764		0.001447		0.002601		
1.408667		-21.107234		778.438335		152.040781		0.079473		0.000000		0.195316		-0.451697		16.658692		3.253695		26.121767		807.057171		154.850701		-0.120510		0.000000		0.189213		1.084010		33.491541		6.426051		10.978904		-1.645361		-4.859668		0.381150		1.275779		1.885143		-0.014747		0.002210		0.006527		-6.517504		-0.369911		-0.700081		-0.351607		1.268386		1.872910		0.025067		0.001423		0.002693		
1.411318		-21.653907		769.802399		150.551561		0.079589		0.000000		0.195010		-0.462584		16.444981		3.216173		26.309907		802.905793		152.449183		-0.120388		0.000000		0.189108		1.084859		33.106911		6.286074		10.990472		-1.611989		-4.915307		0.381151		1.275786		1.885171		-0.012046		0.001767		0.005387		-6.475231		-0.359203		-0.702129		-0.351617		1.268388		1.872903		0.025336		0.001406		0.002747		
1.413970		-21.884258		761.557932		148.912370		0.079672		0.000000		0.194714		-0.467438		16.266534		3.180701		26.475208		797.726877		149.642139		-0.120244		0.000000		0.189020		1.083439		32.645212		6.123776		11.042494		-1.582122		-4.975138		0.381148		1.275791		1.885193		-0.009825		0.001407		0.004426		-6.435837		-0.356879		-0.694319		-0.351630		1.268389		1.872899		0.025398		0.001409		0.002740		
1.416621		-21.801232		754.186847		147.032720		0.079750		0.000000		0.194478		-0.466508		16.138276		3.146242		26.624074		791.589225		146.781323		-0.120105		0.000000		0.188911		1.081986		32.169713		5.965108		11.133817		-1.567612		-5.039586		0.381144		1.275794		1.885205		-0.008599		0.001211		0.003893		-6.405616		-0.367300		-0.680334		-0.351644		1.268389		1.872897		0.025127		0.001441		0.002669		
